Coordinates
version=1
nRows=38
nColumns=34
inDegrees=no

Units are S.I. units (second, meters, Newtons, ...)
If the header above contains a line with 'inDegrees', this indicates whether rotational values are in degrees (yes) or radians (no).

endheader
time	pelvis_tilt	pelvis_list	pelvis_rotation	pelvis_tx	pelvis_ty	pelvis_tz	hip_flexion_r	hip_adduction_r	hip_rotation_r	knee_angle_r	ankle_angle_r	subtalar_angle_r	mtp_angle_r	hip_flexion_l	hip_adduction_l	hip_rotation_l	knee_angle_l	ankle_angle_l	subtalar_angle_l	mtp_angle_l	lumbar_extension	lumbar_bending	lumbar_rotation	arm_flex_r	arm_add_r	arm_rot_r	elbow_flex_r	pro_sup_r	arm_flex_l	arm_add_l	arm_rot_l	elbow_flex_l	pro_sup_l
1.24	-0.176195	0.00144923	0.11555	-0.410132	0.88002	-0.60083	0.683641	-0.19205	-0.296029	0.438414	-0.107947	0.0180724	-0.143936	0.714306	-0.14354	-0.186183	0.537572	-0.0638436	0.199472	-0.143977	-0.316733	0.00809111	-0.0174386	-0.746026	-0.713644	-0.659419	2.02894	1.51616	-0.61046	-0.807135	-0.249082	2.38746	0.923001
1.25	-0.182463	-0.00437053	0.0962526	-0.404206	0.851655	-0.599362	0.785923	-0.174779	-0.242958	0.601601	-0.0127159	-0.0504953	-0.143937	0.798058	-0.156426	-0.15731	0.686066	0.0662379	0.156845	-0.143977	-0.319871	0.010496	0.00559933	-0.631438	-0.747075	-0.595446	1.98438	1.517	-0.522042	-0.789907	-0.183773	2.29702	1.38931
1.26	-0.1862	-0.00860423	0.0769091	-0.39922	0.824467	-0.598046	0.879769	-0.157686	-0.195067	0.752255	0.0675967	-0.108193	-0.143937	0.875398	-0.169341	-0.131195	0.825215	0.176685	0.11975	-0.143978	-0.329292	0.0105211	0.0274221	-0.507119	-0.774853	-0.522771	1.93432	1.51017	-0.427251	-0.772476	-0.121722	2.21482	1.73373
1.27	-0.187377	-0.0112915	0.0575952	-0.394764	0.800435	-0.596754	0.964907	-0.140869	-0.152474	0.889957	0.133582	-0.154926	-0.143938	0.94615	-0.182222	-0.107905	0.954666	0.267833	0.0882327	-0.143978	-0.344898	0.00817497	0.0479513	-0.373324	-0.796855	-0.441575	1.87891	1.49565	-0.326216	-0.754891	-0.0626435	2.14023	1.96329
1.28	-0.186175	-0.0124504	0.0385751	-0.390653	0.779732	-0.595499	1.04081	-0.12467	-0.115485	1.0139	0.186974	-0.190488	-0.143938	1.00993	-0.194902	-0.0876114	1.0736	0.340921	0.0623785	-0.143978	-0.366355	0.00356147	0.0669474	-0.230838	-0.812778	-0.35243	1.81856	1.4736	-0.219374	-0.737275	-0.00603396	2.07209	2.09316
1.29	-0.183066	-0.0121215	0.0203474	-0.387185	0.760907	-0.594375	1.10714	-0.109781	-0.0844759	1.12335	0.230569	-0.214729	-0.143938	1.06641	-0.207064	-0.0705225	1.18099	0.398365	0.0422257	-0.143979	-0.392869	-0.0030608	0.0839617	-0.081138	-0.822201	-0.256442	1.75406	1.44467	-0.107606	-0.719806	0.0486585	2.00906	2.14422
1.3	-0.178909	-0.0104802	0.00360812	-0.384599	0.743053	-0.593402	1.16422	-0.0971848	-0.0596717	1.21825	0.2675	-0.227848	-0.143939	1.11571	-0.218234	-0.0566991	1.27604	0.44341	0.0276445	-0.143979	-0.423128	-0.0112095	0.0983897	0.0736182	-0.824743	-0.155257	1.68665	1.41028	0.00778337	-0.70266	0.101872	1.95007	2.13951
1.31	-0.17474	-0.00785653	-0.0108607	-0.382881	0.725984	-0.5926	1.21324	-0.0879195	-0.0410122	1.29944	0.300365	-0.230618	-0.143939	1.15865	-0.227886	-0.0458654	1.3586	0.479379	0.0182697	-0.143979	-0.455361	-0.0201039	0.10964	0.230785	-0.820252	-0.0509558	1.61787	1.37283	0.125212	-0.685935	0.153835	1.89457	2.10112
1.32	-0.171628	-0.00475721	-0.0223537	-0.381848	0.709814	-0.592	1.25607	-0.0828064	-0.0281399	1.36858	0.330744	-0.224433	-0.14394	1.19676	-0.235587	-0.0373622	1.42938	0.50898	0.0135279	-0.14398	-0.487677	-0.0287139	0.117336	0.387512	-0.808932	0.0541306	1.54956	1.33543	0.243036	-0.669605	0.204541	1.84258	2.0479
1.33	-0.170414	-0.0018232	-0.03039	-0.381229	0.694727	-0.591645	1.29475	-0.0822526	-0.0204617	1.4278	0.359212	-0.2112	-0.14394	1.23191	-0.241116	-0.0302665	1.48982	0.533981	0.0127129	-0.14398	-0.518438	-0.0359313	0.121451	0.541028	-0.791389	0.157583	1.48375	1.30141	0.359768	-0.653522	0.253791	1.79471	1.99429
1.34	-0.17152	0.000324907	-0.0347802	-0.38078	0.680764	-0.591563	1.33103	-0.086164	-0.0172191	1.4793	0.385683	-0.19312	-0.14394	1.26588	-0.2445	-0.0235996	1.5418	0.5553	0.0150637	-0.14398	-0.546573	-0.0407631	0.122331	0.688832	-0.768592	0.256999	1.42267	1.27329	0.474239	-0.637477	0.301294	1.75195	1.94969
1.35	-0.174966	0.00116879	-0.0356288	-0.380351	0.667847	-0.591729	1.36607	-0.0939855	-0.017533	1.52499	0.4098	-0.17246	-0.143941	1.29999	-0.245961	-0.0165321	1.58727	0.57332	0.0198251	-0.14398	-0.571716	-0.0425466	0.120608	0.828807	-0.741786	0.350043	1.36869	1.25236	0.585686	-0.621263	0.346752	1.71551	1.91881
1.36	-0.180443	0.000395507	-0.0332837	-0.379881	0.655828	-0.59209	1.40041	-0.104816	-0.0204448	1.56637	0.431218	-0.151352	-0.143941	1.33493	-0.245822	-0.00852631	1.62796	0.588241	0.0262898	-0.143981	-0.594074	-0.0410719	0.117053	0.959276	-0.712337	0.434501	1.32408	1.23861	0.693736	-0.604716	0.389901	1.68646	1.90261
1.37	-0.187525	-0.00202005	-0.0282644	-0.379375	0.644485	-0.592575	1.43421	-0.117559	-0.0249615	1.60448	0.44974	-0.131637	-0.143942	1.37086	-0.244435	0.000601062	1.66516	0.600306	0.0338276	-0.143981	-0.614175	-0.0366053	0.112429	1.07903	-0.681556	0.508378	1.2908	1.23112	0.798298	-0.587727	0.430498	1.66557	1.89939
1.38	-0.195867	-0.00586357	-0.0212206	-0.378858	0.633605	-0.593101	1.46747	-0.131077	-0.0301084	1.63998	0.465343	-0.11476	-0.143942	1.40759	-0.242142	0.0106835	1.69971	0.6099	0.0419129	-0.143981	-0.632615	-0.0298527	0.107358	1.18734	-0.650528	0.570068	1.27013	1.22847	0.89942	-0.570221	0.468278	1.65309	1.90594
1.39	-0.20521	-0.0106999	-0.0128707	-0.378344	0.623051	-0.59359	1.50021	-0.144302	-0.0350133	1.67322	0.478143	-0.101693	-0.143942	1.44471	-0.239301	0.0212945	1.73202	0.617557	0.0501612	-0.143982	-0.649845	-0.0217963	0.102293	1.28399	-0.619997	0.618545	1.26251	1.22917	0.997141	-0.552147	0.502914	1.64872	1.91853
1.4	-0.215414	-0.0160051	-0.00395348	-0.377837	0.61279	-0.593981	1.5325	-0.15632	-0.0389924	1.70436	0.488351	-0.0928833	-0.143943	1.48173	-0.236294	0.0318949	1.76223	0.623897	0.0583611	-0.143982	-0.666161	-0.013494	0.0975147	1.36925	-0.590316	0.65351	1.26743	1.23194	1.09138	-0.533461	0.533983	1.65167	1.93374
1.41	-0.22638	-0.021301	0.00483811	-0.377329	0.602848	-0.594216	1.56434	-0.166433	-0.0416193	1.73341	0.496262	-0.0882654	-0.143943	1.51816	-0.233525	0.0419941	1.79029	0.629545	0.0664764	-0.143982	-0.681743	-0.00586808	0.0931749	1.44379	-0.561487	0.67544	1.28356	1.23585	1.18188	-0.514129	0.560976	1.66074	1.94921
1.42	-0.237967	-0.0262575	0.012934	-0.37681	0.593286	-0.594253	1.59561	-0.174211	-0.0427447	1.76034	0.502243	-0.0873416	-0.143944	1.55347	-0.231354	0.0512667	1.81612	0.635037	0.0746035	-0.143983	-0.696733	0.000446609	0.0893306	1.50857	-0.533251	0.685477	1.30902	1.24036	1.26818	-0.494145	0.583356	1.67452	1.96375
1.43	-0.249926	-0.0307179	0.0199517	-0.376273	0.584197	-0.59408	1.62599	-0.179504	-0.0424608	1.78508	0.506733	-0.0893261	-0.143944	1.58716	-0.230034	0.0595927	1.83965	0.640741	0.082894	-0.143983	-0.71128	0.00516547	0.0859675	1.5646	-0.505203	0.685212	1.34166	1.24527	1.34969	-0.47354	0.600668	1.69157	1.9772
1.44	-0.26192	-0.0346497	0.0257373	-0.375692	0.575697	-0.593724	1.65499	-0.182426	-0.041026	1.80759	0.510223	-0.0933046	-0.143944	1.61874	-0.229662	0.0670222	1.86088	0.646821	0.0914715	-0.143983	-0.725554	0.00832523	0.0830178	1.61278	-0.476921	0.676425	1.37938	1.25059	1.42576	-0.452387	0.612646	1.71058	1.98993
1.45	-0.273579	-0.0380867	0.030345	-0.375029	0.56789	-0.593235	1.68206	-0.183305	-0.0387715	1.82789	0.513223	-0.0983758	-0.143945	1.64779	-0.23018	0.073692	1.87985	0.653254	0.100378	-0.143984	-0.739688	0.0101835	0.0803675	1.65376	-0.448056	0.660863	1.42039	1.25647	1.49575	-0.430793	0.619288	1.73048	2.00246
1.46	-0.284599	-0.0410892	0.0339746	-0.374246	0.560837	-0.592661	1.70673	-0.18261	-0.0360192	1.84604	0.51621	-0.10376	-0.143945	1.67403	-0.23142	0.0797349	1.89667	0.659895	0.109573	-0.143984	-0.753721	0.0110877	0.0778627	1.68792	-0.418395	0.640104	1.46326	1.26294	1.55914	-0.408885	0.620897	1.75052	2.01497
1.47	-0.294796	-0.0437127	0.0369094	-0.373313	0.554558	-0.592038	1.72868	-0.180865	-0.0330382	1.86216	0.519568	-0.108864	-0.143946	1.69732	-0.233178	0.0852236	1.91145	0.666568	0.118971	-0.143984	-0.767545	0.0113645	0.0753311	1.71534	-0.387885	0.615503	1.50705	1.26991	1.61555	-0.386815	0.618054	1.77031	2.02699
1.48	-0.304134	-0.0459948	0.0394531	-0.372213	0.549049	-0.591394	1.74785	-0.178587	-0.0300358	1.87642	0.523552	-0.113301	-0.143946	1.71768	-0.235266	0.0901577	1.92431	0.67313	0.128483	-0.143985	-0.7809	0.0112655	0.072605	1.73598	-0.356648	0.588223	1.55116	1.27717	1.66479	-0.364753	0.61151	1.78968	2.03788
1.49	-0.312696	-0.047958	0.041879	-0.370939	0.544286	-0.590756	1.76434	-0.176252	-0.0271652	1.88898	0.528276	-0.116851	-0.143946	1.73526	-0.237531	0.0944806	1.93536	0.679494	0.138032	-0.143985	-0.793422	0.0109667	0.0695401	1.74978	-0.324982	0.559302	1.59528	1.28452	1.70683	-0.342883	0.602065	1.80867	2.0471
1.5	-0.320624	-0.0496017	0.0444054	-0.369492	0.540224	-0.590145	1.7784	-0.174277	-0.0245333	1.90001	0.533732	-0.11941	-0.143947	1.75029	-0.239845	0.0981058	1.94471	0.685607	0.147533	-0.143985	-0.804714	0.010598	0.0660335	1.7568	-0.293362	0.529726	1.6393	1.29178	1.7418	-0.321402	0.59047	1.8274	2.05444
1.51	-0.328053	-0.0509169	0.0471817	-0.367878	0.536812	-0.589578	1.7903	-0.173	-0.0222038	1.90967	0.539816	-0.120945	-0.143947	1.76302	-0.2421	0.100942	1.95248	0.691416	0.156871	-0.143986	-0.814433	0.0102527	0.0620375	1.75733	-0.262405	0.500455	1.68315	1.29885	1.76999	-0.300537	0.577383	1.84603	2.06004
1.52	-0.33506	-0.0518981	0.0502704	-0.366097	0.534003	-0.589062	1.80026	-0.172628	-0.0202078	1.91807	0.546348	-0.12149	-0.143947	1.77364	-0.244218	0.102922	1.9588	0.696845	0.165885	-0.143986	-0.822349	0.00998805	0.0575765	1.75191	-0.232825	0.472409	1.72681	1.30566	1.79178	-0.280554	0.563383	1.86475	2.06424
1.53	-0.341639	-0.0525556	0.0536376	-0.364151	0.531764	-0.588604	1.80839	-0.173198	-0.018562	1.92525	0.553088	-0.121161	-0.143948	1.78227	-0.246168	0.104034	1.96379	0.701792	0.17437	-0.143986	-0.828381	0.0098256	0.0527637	1.74128	-0.205352	0.446383	1.7702	1.31217	1.80767	-0.261773	0.548993	1.88378	2.06752
1.54	-0.347702	-0.0529261	0.0571587	-0.362048	0.530081	-0.588203	1.81468	-0.17456	-0.0172869	1.93123	0.559738	-0.120169	-0.143948	1.78889	-0.247968	0.104334	1.96753	0.706142	0.182081	-0.143987	-0.832592	0.00976115	0.0478006	1.72634	-0.180645	0.422955	1.81324	1.31825	1.8182	-0.244568	0.534698	1.90336	2.07022
1.55	-0.353107	-0.0530796	0.0606444	-0.359802	0.528961	-0.58785	1.819	-0.176408	-0.0164165	1.93595	0.565959	-0.118806	-0.143949	1.79344	-0.249671	0.103949	1.97009	0.709784	0.188744	-0.143987	-0.835155	0.00977921	0.0429463	1.708	-0.159212	0.402406	1.85583	1.32374	1.82396	-0.229379	0.520945	1.92381	2.07246
1.56	-0.357703	-0.0531113	0.063878	-0.35742	0.528438	-0.587527	1.82117	-0.178337	-0.0159963	1.93931	0.571399	-0.117421	-0.143949	1.79579	-0.251346	0.103047	1.97151	0.712632	0.194073	-0.143987	-0.83628	0.00985966	0.038459	1.68715	-0.141375	0.384708	1.89786	1.32836	1.82554	-0.216721	0.508147	1.94548	2.07403
1.57	-0.361376	-0.0531218	0.0666557	-0.354904	0.528569	-0.587214	1.82103	-0.17993	-0.0160735	1.94118	0.575737	-0.11636	-0.143949	1.79584	-0.253054	0.101804	1.97173	0.714641	0.197797	-0.143988	-0.83615	0.00997879	0.034527	1.66461	-0.127295	0.369587	1.93927	1.33176	1.82359	-0.207187	0.496693	1.96876	2.0744
1.58	-0.364082	-0.0531944	0.0688233	-0.352261	0.529399	-0.586895	1.81848	-0.180836	-0.0166832	1.94144	0.578736	-0.115906	-0.14395	1.79349	-0.254828	0.100368	1.9707	0.715804	0.199713	-0.143988	-0.834867	0.0101144	0.0312161	1.64113	-0.117039	0.356636	1.98002	1.33348	1.81875	-0.201426	0.48696	1.99402	2.07278
1.59	-0.365848	-0.0533774	0.0703019	-0.349517	0.530951	-0.586561	1.81349	-0.180849	-0.0178384	1.93994	0.580277	-0.116219	-0.14395	1.78873	-0.256649	0.0988381	1.9683	0.716153	0.199731	-0.143988	-0.832462	0.0102528	0.0284557	1.61743	-0.110648	0.345406	2.0201	1.3331	1.8118	-0.200088	0.479308	2.02152	2.06833
1.6	-0.366746	-0.053676	0.0710917	-0.346695	0.53323	-0.586209	1.80606	-0.179934	-0.0195274	1.93658	0.580386	-0.117299	-0.143951	1.78156	-0.258457	0.0972574	1.96439	0.715733	0.197918	-0.143989	-0.828916	0.0103848	0.026069	1.59427	-0.108183	0.335464	2.05952	1.33038	1.80362	-0.203737	0.474063	2.05133	2.06036
1.61	-0.366877	-0.0540486	0.0712514	-0.343828	0.536231	-0.585845	1.79626	-0.178208	-0.0217161	1.93127	0.579212	-0.118985	-0.143951	1.77204	-0.260172	0.0956204	1.95883	0.71457	0.194514	-0.143989	-0.824202	0.0104877	0.0238294	1.57245	-0.10974	0.326391	2.09831	1.32539	1.79524	-0.212752	0.471476	2.08331	2.04852
